<svg width="14" height="18" viewBox="0 0 14 18" fill="none" xmlns="http://www.w3.org/2000/svg">
<path d="M6.52039 17.2758L6.5186 17.2737C6.26633 16.9738 5.97955 16.6467 5.6709 16.2947C4.78305 15.2822 3.71428 14.0634 2.76575 12.6896C1.48857 10.8398 0.5 8.80203 0.5 6.76751C0.5 3.3218 3.39405 0.5 7 0.5C10.6046 0.5 13.5 3.32186 13.5 6.76751C13.5 8.58287 12.5089 10.6177 11.2187 12.5337C10.193 14.0569 9.02312 15.4427 8.1095 16.5249C7.88132 16.7952 7.66912 17.0466 7.47914 17.2764C7.2305 17.5747 6.76875 17.5745 6.52039 17.2758Z" stroke="white"/>
<path d="M10 6.85724C10 8.46497 8.66662 9.78581 7 9.78581C5.33338 9.78581 4 8.46497 4 6.85724C4 5.2495 5.33338 3.92867 7 3.92867C8.66662 3.92867 10 5.2495 10 6.85724Z" stroke="white"/>
</svg>
