<svg width="20" height="20" viewBox="0 0 20 20" fill="none" xmlns="http://www.w3.org/2000/svg">
<path d="M17.7364 6.89555L12.7774 6.17484L10.5606 1.6807C10.5001 1.55765 10.4005 1.45805 10.2774 1.3975C9.96882 1.24515 9.59382 1.37211 9.43952 1.6807L7.22272 6.17484L2.26374 6.89555C2.12702 6.91508 2.00202 6.97953 1.90632 7.07719C1.79062 7.19611 1.72686 7.35609 1.72906 7.52199C1.73126 7.6879 1.79923 7.84614 1.91804 7.96195L5.50593 11.46L4.65827 16.3995C4.63839 16.5144 4.65111 16.6325 4.69497 16.7406C4.73884 16.8486 4.8121 16.9422 4.90645 17.0107C5.0008 17.0793 5.11246 17.12 5.22878 17.1283C5.34509 17.1366 5.4614 17.1121 5.56452 17.0577L10.0001 14.7256L14.4356 17.0577C14.5567 17.1221 14.6973 17.1436 14.8321 17.1202C15.1719 17.0616 15.4005 16.7393 15.3419 16.3995L14.4942 11.46L18.0821 7.96195C18.1798 7.86625 18.2442 7.74125 18.2637 7.60453C18.3165 7.26273 18.0782 6.94633 17.7364 6.89555Z" fill="#FADB14"/>
</svg>
